<svg xmlns="http://www.w3.org/2000/svg" xmlns:xlink="http://www.w3.org/1999/xlink" width="500" zoomAndPan="magnify" viewBox="0 0 375 374.999991" height="500" preserveAspectRatio="xMidYMid meet" version="1.0"><defs><g/><clipPath id="c38b9dce64"><path d="M 0 0 L 372.882812 0 L 372.882812 372.882812 L 0 372.882812 Z M 0 0 " clip-rule="nonzero"/></clipPath><clipPath id="f204320bb5"><path d="M 186.441406 0 C 83.472656 0 0 83.472656 0 186.441406 C 0 289.410156 83.472656 372.882812 186.441406 372.882812 C 289.410156 372.882812 372.882812 289.410156 372.882812 186.441406 C 372.882812 83.472656 289.410156 0 186.441406 0 Z M 186.441406 0 " clip-rule="nonzero"/></clipPath><clipPath id="1d2de3367a"><path d="M 0 0 L 372.882812 0 L 372.882812 372.882812 L 0 372.882812 Z M 0 0 " clip-rule="nonzero"/></clipPath><clipPath id="2000fb4b04"><path d="M 186.441406 0 C 83.472656 0 0 83.472656 0 186.441406 C 0 289.410156 83.472656 372.882812 186.441406 372.882812 C 289.410156 372.882812 372.882812 289.410156 372.882812 186.441406 C 372.882812 83.472656 289.410156 0 186.441406 0 Z M 186.441406 0 " clip-rule="nonzero"/></clipPath><clipPath id="7dc1afdd91"><rect x="0" width="373" y="0" height="373"/></clipPath><clipPath id="2a49d442fd"><path d="M 0.960938 0.800781 L 174 0.800781 L 174 86 L 0.960938 86 Z M 0.960938 0.800781 " clip-rule="nonzero"/></clipPath><clipPath id="f8ab95b8c9"><rect x="0" width="174" y="0" height="86"/></clipPath><clipPath id="da45aaa176"><path d="M 37 62 L 328.558594 62 L 328.558594 149.359375 L 37 149.359375 Z M 37 62 " clip-rule="nonzero"/></clipPath><clipPath id="704db49b16"><path d="M 0.199219 4 L 72 4 L 72 65 L 0.199219 65 Z M 0.199219 4 " clip-rule="nonzero"/></clipPath><clipPath id="8a70e84e4e"><rect x="0" width="292" y="0" height="88"/></clipPath><clipPath id="2ee5c5940a"><rect x="0" width="329" y="0" height="150"/></clipPath></defs><g clip-path="url(#c38b9dce64)"><g clip-path="url(#f204320bb5)"><g transform="matrix(1, 0, 0, 1, 0, 0)"><g clip-path="url(#7dc1afdd91)"><g clip-path="url(#1d2de3367a)"><g clip-path="url(#2000fb4b04)"><path fill="#151d29" d="M 0 0 L 372.882812 0 L 372.882812 372.882812 L 0 372.882812 Z M 0 0 " fill-opacity="1" fill-rule="nonzero"/></g></g></g></g></g></g><g transform="matrix(1, 0, 0, 1, 30, 112)"><g clip-path="url(#2ee5c5940a)"><g clip-path="url(#2a49d442fd)"><g transform="matrix(1, 0, 0, 1, -0.000000000000003553, 0)"><g clip-path="url(#f8ab95b8c9)"><g fill="#004aad" fill-opacity="1"><g transform="translate(1.098569, 63.591246)"><g><path d="M 76.046875 -54 C 75.546875 -55.269531 74.851562 -56.054688 73.96875 -56.359375 C 73.082031 -56.671875 72 -56.828125 70.71875 -56.828125 L 70.71875 -58.234375 L 87.28125 -58.234375 L 87.28125 -56.828125 C 85.394531 -56.828125 84.175781 -56.023438 83.625 -54.421875 L 63.0625 0 L 57.078125 0 L 43.59375 -35.609375 L 30.28125 0 L 24.21875 0 L 3.75 -54.421875 C 3.46875 -55.242188 2.992188 -55.847656 2.328125 -56.234375 C 1.660156 -56.628906 0.882812 -56.828125 0 -56.828125 L 0 -58.234375 L 22.71875 -58.234375 L 22.71875 -56.828125 C 21.5 -56.828125 20.539062 -56.519531 19.84375 -55.90625 C 19.144531 -55.300781 19.046875 -54.359375 19.546875 -53.078125 L 34.109375 -14.234375 L 42.9375 -37.609375 L 36.53125 -54.421875 C 35.96875 -56.023438 34.71875 -56.828125 32.78125 -56.828125 L 32.78125 -58.234375 L 55.5 -58.234375 L 55.5 -56.828125 C 54.28125 -56.828125 53.320312 -56.519531 52.625 -55.90625 C 51.925781 -55.300781 51.828125 -54.359375 52.328125 -53.078125 L 66.890625 -14.234375 L 78.046875 -43.6875 C 78.378906 -44.625 78.515625 -45.535156 78.453125 -46.421875 C 78.398438 -47.316406 78.207031 -48.207031 77.875 -49.09375 Z M 76.046875 -54 "/></g></g></g><g fill="#004aad" fill-opacity="1"><g transform="translate(88.034419, 63.591246)"><g><path d="M 41.59375 -29.03125 C 41.59375 -31.363281 40.941406 -33.332031 39.640625 -34.9375 C 38.335938 -36.550781 36.671875 -37.84375 34.640625 -38.8125 C 32.617188 -39.78125 30.515625 -40.484375 28.328125 -40.921875 C 26.140625 -41.367188 24.128906 -41.59375 22.296875 -41.59375 C 18.242188 -41.59375 14.523438 -40.734375 11.140625 -39.015625 C 7.765625 -37.296875 5.0625 -34.882812 3.03125 -31.78125 C 1.007812 -28.675781 0 -25.015625 0 -20.796875 C 0 -16.753906 0.96875 -13.164062 2.90625 -10.03125 C 4.851562 -6.894531 7.472656 -4.4375 10.765625 -2.65625 C 14.066406 -0.882812 17.6875 0 21.625 0 C 24.457031 0 27.191406 -0.46875 29.828125 -1.40625 C 32.460938 -2.351562 34.816406 -3.726562 36.890625 -5.53125 C 38.972656 -7.332031 40.539062 -9.535156 41.59375 -12.140625 L 40.765625 -12.8125 C 38.378906 -11.09375 36.101562 -10.109375 33.9375 -9.859375 C 31.78125 -9.609375 30.035156 -9.859375 28.703125 -10.609375 C 27.367188 -11.359375 26.757812 -12.34375 26.875 -13.5625 C 26.988281 -14.832031 27.515625 -15.859375 28.453125 -16.640625 C 29.398438 -17.421875 30.46875 -18.046875 31.65625 -18.515625 C 32.851562 -18.984375 33.921875 -19.441406 34.859375 -19.890625 C 36.640625 -20.722656 38.207031 -21.859375 39.5625 -23.296875 C 40.914062 -24.734375 41.59375 -26.644531 41.59375 -29.03125 Z M 16.890625 -37.4375 C 18.554688 -38.9375 20.21875 -39.8125 21.875 -40.0625 C 23.539062 -40.3125 25 -40.046875 26.25 -39.265625 C 27.5 -38.492188 28.382812 -37.316406 28.90625 -35.734375 C 29.4375 -34.148438 29.394531 -32.28125 28.78125 -30.125 C 28.507812 -29.0625 28.066406 -28.054688 27.453125 -27.109375 C 26.847656 -26.171875 26.238281 -25.234375 25.625 -24.296875 C 23.90625 -21.578125 23.085938 -18.828125 23.171875 -16.046875 C 23.253906 -13.273438 24.820312 -10.976562 27.875 -9.15625 C 24.65625 -9.257812 21.644531 -10.15625 18.84375 -11.84375 C 16.039062 -13.539062 14.054688 -16 12.890625 -19.21875 C 12.171875 -21.269531 11.820312 -23.429688 11.84375 -25.703125 C 11.875 -27.984375 12.320312 -30.148438 13.1875 -32.203125 C 14.050781 -34.253906 15.285156 -36 16.890625 -37.4375 Z M 16.890625 -37.4375 "/></g></g></g><g fill="#004aad" fill-opacity="1"><g transform="translate(127.466746, 63.591246)"><g><path d="M 12.390625 0 L 0 0 L 0 -1.421875 C 1.101562 -1.421875 2.070312 -1.75 2.90625 -2.40625 C 3.738281 -3.070312 4.15625 -4.488281 4.15625 -6.65625 L 4.15625 -51.5 C 4.15625 -53.613281 3.738281 -55.039062 2.90625 -55.78125 C 2.070312 -56.53125 1.101562 -56.90625 0 -56.90625 L 0 -58.234375 C 2.769531 -58.347656 5.679688 -58.804688 8.734375 -59.609375 C 11.785156 -60.421875 14.421875 -61.269531 16.640625 -62.15625 L 16.640625 -33.609375 C 17.472656 -34.828125 18.539062 -36.046875 19.84375 -37.265625 C 21.144531 -38.492188 22.65625 -39.519531 24.375 -40.34375 C 26.09375 -41.175781 27.976562 -41.59375 30.03125 -41.59375 C 33.582031 -41.59375 36.519531 -40.648438 38.84375 -38.765625 C 41.175781 -36.878906 42.925781 -34.367188 44.09375 -31.234375 C 45.257812 -28.109375 45.84375 -24.601562 45.84375 -20.71875 C 45.84375 -16.226562 45.035156 -12.441406 43.421875 -9.359375 C 41.816406 -6.285156 39.738281 -3.957031 37.1875 -2.375 C 34.632812 -0.789062 31.945312 0 29.125 0 C 24.789062 0 20.628906 -2.078125 16.640625 -6.234375 L 16.640625 -5.234375 C 16.640625 -3.128906 16.207031 -1.726562 15.34375 -1.03125 C 14.488281 -0.34375 13.503906 0 12.390625 0 Z M 16.640625 -30.875 L 16.640625 -8.3125 C 18.410156 -6.425781 20.472656 -5.289062 22.828125 -4.90625 C 25.191406 -4.519531 27.316406 -5.269531 29.203125 -7.15625 C 30.753906 -8.707031 31.820312 -10.800781 32.40625 -13.4375 C 32.988281 -16.070312 33.28125 -18.722656 33.28125 -21.390625 C 33.28125 -22.941406 33.113281 -24.710938 32.78125 -26.703125 C 32.445312 -28.703125 31.890625 -30.601562 31.109375 -32.40625 C 30.335938 -34.207031 29.257812 -35.523438 27.875 -36.359375 C 25.988281 -37.523438 24.003906 -37.566406 21.921875 -36.484375 C 19.835938 -35.398438 18.078125 -33.53125 16.640625 -30.875 Z M 16.640625 -30.875 "/></g></g></g></g></g></g><g clip-path="url(#da45aaa176)"><g transform="matrix(1, 0, 0, 1, 37, 62)"><g clip-path="url(#8a70e84e4e)"><g clip-path="url(#704db49b16)"><g fill="#0092b8" fill-opacity="1"><g transform="translate(0.241704, 64.777517)"><g><path d="M 20.859375 -54.984375 L 36.03125 -14.734375 L 51.203125 -54.984375 C 51.660156 -56.367188 51.539062 -57.375 50.84375 -58 C 50.15625 -58.632812 49.179688 -58.953125 47.921875 -58.953125 L 47.921875 -60.328125 L 71.625 -60.328125 L 71.625 -58.953125 C 70.46875 -58.953125 69.457031 -58.59375 68.59375 -57.875 C 67.738281 -57.15625 67.3125 -55.675781 67.3125 -53.4375 L 67.3125 -6.890625 C 67.3125 -4.710938 67.738281 -3.25 68.59375 -2.5 C 69.457031 -1.75 70.46875 -1.375 71.625 -1.375 L 71.625 0 L 48.09375 0 L 48.09375 -1.375 C 49.300781 -1.375 50.332031 -1.75 51.1875 -2.5 C 52.050781 -3.25 52.484375 -4.710938 52.484375 -6.890625 L 52.484375 -54.5625 L 31.96875 0 L 25.765625 0 L 5.78125 -53.09375 L 5.78125 -6.890625 C 5.78125 -4.710938 6.207031 -3.25 7.0625 -2.5 C 7.925781 -1.75 8.960938 -1.375 10.171875 -1.375 L 10.171875 0 L 0 0 L 0 -1.375 C 1.144531 -1.375 2.148438 -1.75 3.015625 -2.5 C 3.878906 -3.25 4.3125 -4.710938 4.3125 -6.890625 L 4.3125 -56.890625 C 3.675781 -58.265625 2.46875 -58.953125 0.6875 -58.953125 L 0.6875 -60.328125 L 24.125 -60.328125 L 24.125 -58.953125 C 22.863281 -58.953125 21.890625 -58.632812 21.203125 -58 C 20.515625 -57.375 20.398438 -56.367188 20.859375 -54.984375 Z M 20.859375 -54.984375 "/></g></g></g></g><g fill="#0092b8" fill-opacity="1"><g transform="translate(71.418997, 64.777517)"><g><path d="M 21.546875 -43.09375 C 25.515625 -43.09375 29.132812 -42.128906 32.40625 -40.203125 C 35.675781 -38.273438 38.273438 -35.675781 40.203125 -32.40625 C 42.128906 -29.132812 43.09375 -25.515625 43.09375 -21.546875 C 43.09375 -17.578125 42.128906 -13.96875 40.203125 -10.71875 C 38.273438 -7.476562 35.675781 -4.878906 32.40625 -2.921875 C 29.132812 -0.972656 25.515625 0 21.546875 0 C 17.578125 0 13.96875 -0.972656 10.71875 -2.921875 C 7.476562 -4.878906 4.878906 -7.476562 2.921875 -10.71875 C 0.972656 -13.96875 0 -17.578125 0 -21.546875 C 0 -25.515625 0.972656 -29.132812 2.921875 -32.40625 C 4.878906 -35.675781 7.476562 -38.273438 10.71875 -40.203125 C 13.96875 -42.128906 17.578125 -43.09375 21.546875 -43.09375 Z M 21.546875 -41.625 C 19.992188 -41.625 18.554688 -40.71875 17.234375 -38.90625 C 15.910156 -37.101562 14.859375 -34.691406 14.078125 -31.671875 C 13.304688 -28.660156 12.921875 -25.285156 12.921875 -21.546875 C 12.921875 -17.867188 13.304688 -14.503906 14.078125 -11.453125 C 14.859375 -8.410156 15.910156 -5.984375 17.234375 -4.171875 C 18.554688 -2.367188 19.992188 -1.46875 21.546875 -1.46875 C 23.148438 -1.46875 24.597656 -2.367188 25.890625 -4.171875 C 27.191406 -5.984375 28.226562 -8.410156 29 -11.453125 C 29.78125 -14.503906 30.171875 -17.867188 30.171875 -21.546875 C 30.171875 -25.285156 29.78125 -28.660156 29 -31.671875 C 28.226562 -34.691406 27.191406 -37.101562 25.890625 -38.90625 C 24.597656 -40.71875 23.148438 -41.625 21.546875 -41.625 Z M 21.546875 -41.625 "/></g></g></g><g fill="#0092b8" fill-opacity="1"><g transform="translate(112.263669, 64.777517)"><g><path d="M 13.015625 0 L 0 0 L 0 -1.46875 C 1.144531 -1.46875 2.160156 -1.828125 3.046875 -2.546875 C 3.941406 -3.265625 4.390625 -4.710938 4.390625 -6.890625 L 4.390625 -32.140625 C 4.390625 -34.328125 3.941406 -35.78125 3.046875 -36.5 C 2.160156 -37.21875 1.144531 -37.578125 0 -37.578125 L 0 -39.046875 C 2.875 -39.160156 5.90625 -39.632812 9.09375 -40.46875 C 12.28125 -41.300781 15.023438 -42.175781 17.328125 -43.09375 L 17.328125 -33.359375 C 19.046875 -34.679688 20.738281 -35.898438 22.40625 -37.015625 C 24.070312 -38.140625 25.710938 -39.128906 27.328125 -39.984375 C 29.109375 -40.960938 30.875 -41.722656 32.625 -42.265625 C 34.375 -42.816406 36.113281 -43.09375 37.84375 -43.09375 C 40.65625 -43.09375 42.75 -42.5625 44.125 -41.5 C 45.507812 -40.4375 46.414062 -38.96875 46.84375 -37.09375 C 47.269531 -35.226562 47.484375 -33.09375 47.484375 -30.6875 L 47.484375 -6.890625 C 47.484375 -4.710938 47.925781 -3.265625 48.8125 -2.546875 C 49.707031 -1.828125 50.703125 -1.46875 51.796875 -1.46875 L 51.796875 0 L 38.875 0 C 37.78125 0 36.785156 -0.367188 35.890625 -1.109375 C 35.003906 -1.859375 34.5625 -3.300781 34.5625 -5.4375 L 34.5625 -28.4375 C 34.5625 -31.71875 33.8125 -33.972656 32.3125 -35.203125 C 30.820312 -36.441406 28.96875 -36.890625 26.75 -36.546875 C 24.539062 -36.203125 22.316406 -35.222656 20.078125 -33.609375 C 19.617188 -33.265625 19.160156 -32.929688 18.703125 -32.609375 C 18.242188 -32.296875 17.785156 -31.96875 17.328125 -31.625 L 17.328125 -5.4375 C 17.328125 -3.300781 16.894531 -1.859375 16.03125 -1.109375 C 15.164062 -0.367188 14.160156 0 13.015625 0 Z M 13.015625 0 "/></g></g></g><g fill="#0092b8" fill-opacity="1"><g transform="translate(161.897904, 64.777517)"><g><path d="M 10.78125 -56.109375 C 12.613281 -56.109375 14.144531 -55.472656 15.375 -54.203125 C 16.613281 -52.941406 17.234375 -51.421875 17.234375 -49.640625 C 17.234375 -47.859375 16.613281 -46.335938 15.375 -45.078125 C 14.144531 -43.816406 12.613281 -43.1875 10.78125 -43.1875 C 9 -43.1875 7.472656 -43.816406 6.203125 -45.078125 C 4.941406 -46.335938 4.3125 -47.859375 4.3125 -49.640625 C 4.3125 -51.421875 4.941406 -52.941406 6.203125 -54.203125 C 7.472656 -55.472656 9 -56.109375 10.78125 -56.109375 Z M 0 0 L 0 -1.46875 C 1.144531 -1.46875 2.148438 -1.828125 3.015625 -2.546875 C 3.878906 -3.265625 4.3125 -4.710938 4.3125 -6.890625 L 4.3125 -32.140625 C 4.3125 -34.328125 3.878906 -35.78125 3.015625 -36.5 C 2.148438 -37.21875 1.144531 -37.578125 0 -37.578125 L 0 -39.046875 C 2.875 -39.160156 5.890625 -39.632812 9.046875 -40.46875 C 12.210938 -41.300781 14.941406 -42.175781 17.234375 -43.09375 L 17.234375 -6.890625 C 17.234375 -4.710938 17.675781 -3.265625 18.5625 -2.546875 C 19.457031 -1.828125 20.484375 -1.46875 21.640625 -1.46875 L 21.640625 0 Z M 0 0 "/></g></g></g><g fill="#0092b8" fill-opacity="1"><g transform="translate(181.285678, 64.777517)"><g><path d="M 4.3125 -41.625 L 0 -41.625 L 0 -43.09375 C 1.957031 -43.207031 4.082031 -43.738281 6.375 -44.6875 C 8.675781 -45.632812 10.832031 -46.910156 12.84375 -48.515625 C 14.851562 -50.128906 16.316406 -51.972656 17.234375 -54.046875 L 17.234375 -43.09375 L 24.125 -43.09375 L 24.125 -41.625 L 17.234375 -41.625 L 17.234375 -13.265625 C 17.234375 -7.066406 19.707031 -4.222656 24.65625 -4.734375 L 24.65625 -3.1875 L 24.5625 -3.109375 C 22.78125 -2.179688 21.015625 -1.429688 19.265625 -0.859375 C 17.515625 -0.285156 15.75 0 13.96875 0 C 11.144531 0 9.054688 -0.53125 7.703125 -1.59375 C 6.359375 -2.65625 5.457031 -4.132812 5 -6.03125 C 4.539062 -7.925781 4.3125 -10.050781 4.3125 -12.40625 Z M 4.3125 -41.625 "/></g></g></g><g fill="#0092b8" fill-opacity="1"><g transform="translate(203.689482, 64.777517)"><g><path d="M 21.546875 -43.09375 C 25.515625 -43.09375 29.132812 -42.128906 32.40625 -40.203125 C 35.675781 -38.273438 38.273438 -35.675781 40.203125 -32.40625 C 42.128906 -29.132812 43.09375 -25.515625 43.09375 -21.546875 C 43.09375 -17.578125 42.128906 -13.96875 40.203125 -10.71875 C 38.273438 -7.476562 35.675781 -4.878906 32.40625 -2.921875 C 29.132812 -0.972656 25.515625 0 21.546875 0 C 17.578125 0 13.96875 -0.972656 10.71875 -2.921875 C 7.476562 -4.878906 4.878906 -7.476562 2.921875 -10.71875 C 0.972656 -13.96875 0 -17.578125 0 -21.546875 C 0 -25.515625 0.972656 -29.132812 2.921875 -32.40625 C 4.878906 -35.675781 7.476562 -38.273438 10.71875 -40.203125 C 13.96875 -42.128906 17.578125 -43.09375 21.546875 -43.09375 Z M 21.546875 -41.625 C 19.992188 -41.625 18.554688 -40.71875 17.234375 -38.90625 C 15.910156 -37.101562 14.859375 -34.691406 14.078125 -31.671875 C 13.304688 -28.660156 12.921875 -25.285156 12.921875 -21.546875 C 12.921875 -17.867188 13.304688 -14.503906 14.078125 -11.453125 C 14.859375 -8.410156 15.910156 -5.984375 17.234375 -4.171875 C 18.554688 -2.367188 19.992188 -1.46875 21.546875 -1.46875 C 23.148438 -1.46875 24.597656 -2.367188 25.890625 -4.171875 C 27.191406 -5.984375 28.226562 -8.410156 29 -11.453125 C 29.78125 -14.503906 30.171875 -17.867188 30.171875 -21.546875 C 30.171875 -25.285156 29.78125 -28.660156 29 -31.671875 C 28.226562 -34.691406 27.191406 -37.101562 25.890625 -38.90625 C 24.597656 -40.71875 23.148438 -41.625 21.546875 -41.625 Z M 21.546875 -41.625 "/></g></g></g><g fill="#0092b8" fill-opacity="1"><g transform="translate(244.534154, 64.777517)"><g><path d="M 12.921875 0 L 0 0 L 0 -1.46875 C 1.144531 -1.46875 2.148438 -1.828125 3.015625 -2.546875 C 3.878906 -3.265625 4.3125 -4.710938 4.3125 -6.890625 L 4.3125 -32.140625 C 4.3125 -34.328125 3.878906 -35.78125 3.015625 -36.5 C 2.148438 -37.21875 1.144531 -37.578125 0 -37.578125 L 0 -39.046875 C 2.875 -39.160156 5.890625 -39.632812 9.046875 -40.46875 C 12.210938 -41.300781 14.941406 -42.175781 17.234375 -43.09375 L 17.234375 -34.640625 C 18.671875 -35.679688 20.078125 -36.644531 21.453125 -37.53125 C 22.835938 -38.425781 24.191406 -39.242188 25.515625 -39.984375 C 27.347656 -40.960938 29.125 -41.722656 30.84375 -42.265625 C 32.570312 -42.816406 34.472656 -43.09375 36.546875 -43.09375 C 38.953125 -43.09375 41.070312 -42.398438 42.90625 -41.015625 C 44.75 -39.640625 45.671875 -37.316406 45.671875 -34.046875 C 45.671875 -31.515625 44.894531 -29.5 43.34375 -28 C 41.800781 -26.507812 39.90625 -25.707031 37.65625 -25.59375 C 36 -25.539062 34.460938 -26 33.046875 -26.96875 C 31.640625 -27.945312 30.707031 -29.300781 30.25 -31.03125 C 31.226562 -31.144531 31.929688 -31.488281 32.359375 -32.0625 C 32.796875 -32.632812 33.039062 -33.265625 33.09375 -33.953125 C 33.207031 -35.109375 32.875 -35.941406 32.09375 -36.453125 C 31.320312 -36.972656 30.445312 -37.289062 29.46875 -37.40625 C 27.40625 -37.695312 25.3125 -37.335938 23.1875 -36.328125 C 21.0625 -35.316406 19.191406 -34.238281 17.578125 -33.09375 L 17.234375 -32.921875 L 17.234375 -5.4375 C 17.234375 -3.300781 16.800781 -1.859375 15.9375 -1.109375 C 15.082031 -0.367188 14.078125 0 12.921875 0 Z M 12.921875 0 "/></g></g></g></g></g></g></g></g></svg>